<svg width="385" height="142" viewBox="0 0 385 142" fill="none" xmlns="http://www.w3.org/2000/svg">
<path d="M102.445 90.1719C102.445 95.1849 102.738 102.639 103.324 112.535C103.91 122.431 104.203 129.853 104.203 134.801C104.203 137.405 103.064 138.805 100.785 139C92.7122 139.586 83.4674 139.879 73.0508 139.879C71.8138 139.879 70.9674 138.023 70.5117 134.312C70.1211 130.536 69.6328 128.616 69.0469 128.551C68.526 128.811 67.8424 129.365 66.9961 130.211C59.7044 137.568 51.8919 141.246 43.5586 141.246C30.8633 141.246 20.349 136.233 12.0156 126.207C4.13802 116.832 0.199219 105.634 0.199219 92.6133C0.199219 77.5742 4.26823 65.4648 12.4062 56.2852C20.8698 46.7799 32.4583 42.0273 47.1719 42.0273C57.3932 42.0273 65.4661 45.6081 71.3906 52.7695C71.651 53.0951 71.8789 53.2578 72.0742 53.2578C72.6602 53.2578 73.3112 51.6953 74.0273 48.5703C74.8086 45.3802 75.7201 43.7852 76.7617 43.7852C79.1706 43.7852 83.7604 44.4688 90.5312 45.8359C96.9766 47.138 101.599 48.2448 104.398 49.1562C105.375 49.5469 105.863 50.0677 105.863 50.7188C105.863 50.9792 105.766 51.6628 105.57 52.7695C103.487 64.5534 102.445 77.0208 102.445 90.1719ZM71 90.7578C71 85.224 69.2422 80.6667 65.7266 77.0859C62.276 73.4401 57.7513 71.6172 52.1523 71.6172C46.5534 71.6172 42.0286 73.4076 38.5781 76.9883C35.1276 80.569 33.4023 85.1589 33.4023 90.7578C33.4023 96.0312 35.2253 100.556 38.8711 104.332C42.5169 108.108 46.944 109.996 52.1523 109.996C57.6862 109.996 62.2109 108.206 65.7266 104.625C69.2422 100.979 71 96.3568 71 90.7578ZM93.3633 17.8086C93.3633 19.3711 93.5911 21.6823 94.0469 24.7422C94.5677 27.8021 94.8281 30.0807 94.8281 31.5781C94.8281 32.6198 93.526 33.3034 90.9219 33.6289C89.099 33.8893 86.5599 33.987 83.3047 33.9219C78.2917 33.7266 76.306 33.6289 77.3477 33.6289C76.0456 33.6289 74.0924 33.694 71.4883 33.8242C68.8841 33.9544 66.931 34.0195 65.6289 34.0195C63.2201 34.0195 62.0156 32.7826 62.0156 30.3086C62.0156 28.8763 62.0807 26.793 62.2109 24.0586C62.3411 21.3242 62.4062 19.2409 62.4062 17.8086C62.4062 16.3112 62.3086 14.0326 62.1133 10.9727C61.9831 7.84766 61.918 5.53646 61.918 4.03906C61.918 1.76042 62.862 0.621094 64.75 0.621094C66.3776 0.621094 68.819 0.751302 72.0742 1.01172C75.3294 1.27214 77.7708 1.40234 79.3984 1.40234C80.7005 1.40234 82.6536 1.36979 85.2578 1.30469C87.9271 1.17448 89.9128 1.10938 91.2148 1.10938C93.4284 1.10938 94.5352 1.82552 94.5352 3.25781C94.5352 4.88542 94.3398 7.32682 93.9492 10.582C93.5586 13.7721 93.3633 16.181 93.3633 17.8086ZM45.0234 18.1992C45.0234 19.8268 45.2188 22.2031 45.6094 25.3281C46 28.388 46.1953 30.6992 46.1953 32.2617C46.1953 33.4987 45.2513 34.1172 43.3633 34.1172C41.7357 34.1172 39.2943 34.0521 36.0391 33.9219C32.849 33.7266 30.4401 33.6289 28.8125 33.6289C27.3802 33.6289 25.2643 33.7266 22.4648 33.9219C19.6654 34.1172 17.5495 34.2148 16.1172 34.2148C14.4245 34.2148 13.5781 33.401 13.5781 31.7734C13.5781 30.4062 13.6758 28.3555 13.8711 25.6211C14.0664 22.8867 14.1641 20.8359 14.1641 19.4688C14.1641 17.7109 14.0339 15.1068 13.7734 11.6562C13.513 8.14062 13.3828 5.50391 13.3828 3.74609C13.3828 1.85807 14.457 0.914062 16.6055 0.914062C19.4049 0.914062 23.6042 0.979167 29.2031 1.10938C34.8021 1.17448 38.9688 1.20703 41.7031 1.20703C44.5026 1.20703 45.9023 2.11849 45.9023 3.94141C45.9023 5.50391 45.7396 7.88021 45.4141 11.0703C45.1536 14.2604 45.0234 16.6367 45.0234 18.1992Z" fill="white"/>
<path d="M160.551 21.6172C160.551 32.9453 154.171 38.6094 141.41 38.6094C135.941 38.6094 131.417 37.1771 127.836 34.3125C123.93 31.1875 121.977 26.9557 121.977 21.6172C121.977 16.5391 123.995 12.3724 128.031 9.11719C131.742 6.1224 136.202 4.625 141.41 4.625C146.488 4.625 150.883 6.15495 154.594 9.21484C158.565 12.4701 160.551 16.6042 160.551 21.6172ZM158.012 94.1758C158.012 98.9284 158.109 106.025 158.305 115.465C158.5 124.84 158.598 131.871 158.598 136.559C158.598 137.926 157.784 138.74 156.156 139C153.943 139.391 148.962 139.586 141.215 139.586C133.402 139.586 128.389 139.391 126.176 139C124.743 138.74 123.865 138.316 123.539 137.73C123.409 137.47 123.344 136.493 123.344 134.801C123.344 130.309 123.441 123.57 123.637 114.586C123.832 105.536 123.93 98.7331 123.93 94.1758C123.93 75.6862 123.214 60.9727 121.781 50.0352C121.651 48.9935 121.586 48.3099 121.586 47.9844C121.586 46.6823 122.465 46.0312 124.223 46.0312C126.046 46.0312 128.812 46.2266 132.523 46.6172C136.299 47.0078 139.132 47.2031 141.02 47.2031C142.908 47.2031 145.74 47.0404 149.516 46.7148C153.292 46.3893 156.124 46.2266 158.012 46.2266C159.574 46.2266 160.355 46.8776 160.355 48.1797C160.355 48.4401 160.29 49.0586 160.16 50.0352C158.728 62.7305 158.012 77.444 158.012 94.1758Z" fill="white"/>
<path d="M274.027 136.168C274.027 137.926 273.116 138.935 271.293 139.195C269.47 139.456 264.717 139.586 257.035 139.586C248.832 139.586 243.754 139.391 241.801 139C239.848 138.609 238.871 137.275 238.871 134.996C238.871 131.936 238.969 127.314 239.164 121.129C239.359 114.944 239.457 110.289 239.457 107.164C239.457 104.755 239.392 101.174 239.262 96.4219C239.132 91.6042 239.066 87.9909 239.066 85.582C239.066 76.6628 235.193 72.2031 227.445 72.2031C224.906 72.2031 221.944 73.3099 218.559 75.5234C214.913 77.9974 213.09 80.4388 213.09 82.8477V135.582C213.09 137.73 212.081 138.935 210.062 139.195C207.784 139.456 203.129 139.586 196.098 139.586C188.48 139.586 183.533 139.391 181.254 139C179.236 138.674 178.227 137.6 178.227 135.777C178.227 130.699 178.259 123.049 178.324 112.828C178.389 102.607 178.422 94.9245 178.422 89.7812C178.422 73.5703 177.152 60.8424 174.613 51.5977C174.483 51.0117 174.418 50.5234 174.418 50.1328C174.418 49.0911 174.906 48.375 175.883 47.9844C179.984 47.5286 185.453 46.8125 192.289 45.8359C202.641 43.8177 208.467 42.8086 209.77 42.8086C210.486 42.8086 211.039 45.0221 211.43 49.4492C211.82 53.8112 212.374 55.9922 213.09 55.9922C212.374 55.9922 215.857 53.7461 223.539 49.2539C231.286 44.6966 238.057 42.418 243.852 42.418C252.12 42.418 259.021 44.3711 264.555 48.2773C270.74 52.7695 273.832 59.0195 273.832 67.0273V98.1797C273.832 102.411 273.865 108.759 273.93 117.223C273.995 125.621 274.027 131.936 274.027 136.168Z" fill="white"/>
<path d="M329.105 21.6172C329.105 32.9453 322.725 38.6094 309.965 38.6094C304.496 38.6094 299.971 37.1771 296.391 34.3125C292.484 31.1875 290.531 26.9557 290.531 21.6172C290.531 16.5391 292.549 12.3724 296.586 9.11719C300.297 6.1224 304.757 4.625 309.965 4.625C315.043 4.625 319.438 6.15495 323.148 9.21484C327.12 12.4701 329.105 16.6042 329.105 21.6172ZM326.566 94.1758C326.566 98.9284 326.664 106.025 326.859 115.465C327.055 124.84 327.152 131.871 327.152 136.559C327.152 137.926 326.339 138.74 324.711 139C322.497 139.391 317.517 139.586 309.77 139.586C301.957 139.586 296.944 139.391 294.73 139C293.298 138.74 292.419 138.316 292.094 137.73C291.964 137.47 291.898 136.493 291.898 134.801C291.898 130.309 291.996 123.57 292.191 114.586C292.387 105.536 292.484 98.7331 292.484 94.1758C292.484 75.6862 291.768 60.9727 290.336 50.0352C290.206 48.9935 290.141 48.3099 290.141 47.9844C290.141 46.6823 291.02 46.0312 292.777 46.0312C294.6 46.0312 297.367 46.2266 301.078 46.6172C304.854 47.0078 307.686 47.2031 309.574 47.2031C311.462 47.2031 314.294 47.0404 318.07 46.7148C321.846 46.3893 324.678 46.2266 326.566 46.2266C328.129 46.2266 328.91 46.8776 328.91 48.1797C328.91 48.4401 328.845 49.0586 328.715 50.0352C327.283 62.7305 326.566 77.444 326.566 94.1758Z" fill="white"/>
<path d="M384.574 25.6211C384.574 37.4701 383.5 48.6029 381.352 59.0195C378.747 69.6966 376.176 80.3411 373.637 90.9531C373.051 93.362 370.447 94.5664 365.824 94.5664C360.551 94.5664 357.621 93.5247 357.035 91.4414C350.915 70.543 347.855 58.6615 347.855 55.7969C347.855 53.1276 347.986 49.1562 348.246 43.8828C348.507 38.6094 348.637 34.638 348.637 31.9688C348.637 29.0391 348.539 24.6445 348.344 18.7852C348.148 12.9258 348.051 8.53125 348.051 5.60156C348.051 3.19271 348.637 1.98828 349.809 1.98828C351.632 1.98828 354.366 2.11849 358.012 2.37891C361.658 2.63932 364.392 2.76953 366.215 2.76953C368.038 2.76953 370.772 2.63932 374.418 2.37891C378.064 2.11849 380.798 1.98828 382.621 1.98828C383.923 1.98828 384.574 9.86589 384.574 25.6211ZM384.574 122.398C384.574 127.867 382.882 132.424 379.496 136.07C376.111 139.651 371.684 141.441 366.215 141.441C360.681 141.441 356.221 139.651 352.836 136.07C349.516 132.49 347.855 127.932 347.855 122.398C347.855 116.93 349.548 112.438 352.934 108.922C356.319 105.406 360.746 103.648 366.215 103.648C371.618 103.648 376.013 105.406 379.398 108.922C382.849 112.438 384.574 116.93 384.574 122.398Z" fill="white"/>
</svg>
