<?xml version="1.0" encoding="UTF-8" standalone="no"?>
<!DOCTYPE svg PUBLIC "-//W3C//DTD SVG 1.1//EN" "http://www.w3.org/Graphics/SVG/1.1/DTD/svg11.dtd">
<svg width="100%" height="100%" viewBox="0 0 290 290" version="1.1" xmlns="http://www.w3.org/2000/svg" xmlns:xlink="http://www.w3.org/1999/xlink" xml:space="preserve" xmlns:serif="http://www.serif.com/" style="fill-rule:evenodd;clip-rule:evenodd;stroke-linejoin:round;stroke-miterlimit:2;">
    <g id="elements">
        <path d="M20,20L30,20L30,30L20,30L20,20ZM30,20L40,20L40,30L30,30L30,20ZM40,20L50,20L50,30L40,30L40,20ZM50,20L60,20L60,30L50,30L50,20ZM60,20L70,20L70,30L60,30L60,20ZM70,20L80,20L80,30L70,30L70,20ZM80,20L90,20L90,30L80,30L80,20ZM110,20L120,20L120,30L110,30L110,20ZM180,20L190,20L190,30L180,30L180,20ZM200,20L210,20L210,30L200,30L200,20ZM210,20L220,20L220,30L210,30L210,20ZM220,20L230,20L230,30L220,30L220,20ZM230,20L240,20L240,30L230,30L230,20ZM240,20L250,20L250,30L240,30L240,20ZM250,20L260,20L260,30L250,30L250,20ZM260,20L270,20L270,30L260,30L260,20ZM20,30L30,30L30,40L20,40L20,30ZM80,30L90,30L90,40L80,40L80,30ZM100,30L110,30L110,40L100,40L100,30ZM110,30L120,30L120,40L110,40L110,30ZM130,30L140,30L140,40L130,40L130,30ZM140,30L150,30L150,40L140,40L140,30ZM150,30L160,30L160,40L150,40L150,30ZM170,30L180,30L180,40L170,40L170,30ZM180,30L190,30L190,40L180,40L180,30ZM200,30L210,30L210,40L200,40L200,30ZM260,30L270,30L270,40L260,40L260,30ZM20,40L30,40L30,50L20,50L20,40ZM40,40L50,40L50,50L40,50L40,40ZM50,40L60,40L60,50L50,50L50,40ZM60,40L70,40L70,50L60,50L60,40ZM80,40L90,40L90,50L80,50L80,40ZM110,40L120,40L120,50L110,50L110,40ZM120,40L130,40L130,50L120,50L120,40ZM130,40L140,40L140,50L130,50L130,40ZM160,40L170,40L170,50L160,50L160,40ZM200,40L210,40L210,50L200,50L200,40ZM220,40L230,40L230,50L220,50L220,40ZM230,40L240,40L240,50L230,50L230,40ZM240,40L250,40L250,50L240,50L240,40ZM260,40L270,40L270,50L260,50L260,40ZM20,50L30,50L30,60L20,60L20,50ZM40,50L50,50L50,60L40,60L40,50ZM50,50L60,50L60,60L50,60L50,50ZM60,50L70,50L70,60L60,60L60,50ZM80,50L90,50L90,60L80,60L80,50ZM100,50L110,50L110,60L100,60L100,50ZM110,50L120,50L120,60L110,60L110,50ZM130,50L140,50L140,60L130,60L130,50ZM140,50L150,50L150,60L140,60L140,50ZM150,50L160,50L160,60L150,60L150,50ZM160,50L170,50L170,60L160,60L160,50ZM170,50L180,50L180,60L170,60L170,50ZM180,50L190,50L190,60L180,60L180,50ZM200,50L210,50L210,60L200,60L200,50ZM220,50L230,50L230,60L220,60L220,50ZM230,50L240,50L240,60L230,60L230,50ZM240,50L250,50L250,60L240,60L240,50ZM260,50L270,50L270,60L260,60L260,50ZM20,60L30,60L30,70L20,70L20,60ZM40,60L50,60L50,70L40,70L40,60ZM50,60L60,60L60,70L50,70L50,60ZM60,60L70,60L70,70L60,70L60,60ZM80,60L90,60L90,70L80,70L80,60ZM120,60L130,60L130,70L120,70L120,60ZM140,60L150,60L150,70L140,70L140,60ZM150,60L160,60L160,70L150,70L150,60ZM180,60L190,60L190,70L180,70L180,60ZM200,60L210,60L210,70L200,70L200,60ZM220,60L230,60L230,70L220,70L220,60ZM230,60L240,60L240,70L230,70L230,60ZM240,60L250,60L250,70L240,70L240,60ZM260,60L270,60L270,70L260,70L260,60ZM20,70L30,70L30,80L20,80L20,70ZM80,70L90,70L90,80L80,80L80,70ZM100,70L110,70L110,80L100,80L100,70ZM120,70L130,70L130,80L120,80L120,70ZM170,70L180,70L180,80L170,80L170,70ZM180,70L190,70L190,80L180,80L180,70ZM200,70L210,70L210,80L200,80L200,70ZM260,70L270,70L270,80L260,80L260,70ZM20,80L30,80L30,90L20,90L20,80ZM30,80L40,80L40,90L30,90L30,80ZM40,80L50,80L50,90L40,90L40,80ZM50,80L60,80L60,90L50,90L50,80ZM60,80L70,80L70,90L60,90L60,80ZM70,80L80,80L80,90L70,90L70,80ZM80,80L90,80L90,90L80,90L80,80ZM100,80L110,80L110,90L100,90L100,80ZM120,80L130,80L130,90L120,90L120,80ZM140,80L150,80L150,90L140,90L140,80ZM160,80L170,80L170,90L160,90L160,80ZM180,80L190,80L190,90L180,90L180,80ZM200,80L210,80L210,90L200,90L200,80ZM210,80L220,80L220,90L210,90L210,80ZM220,80L230,80L230,90L220,90L220,80ZM230,80L240,80L240,90L230,90L230,80ZM240,80L250,80L250,90L240,90L240,80ZM250,80L260,80L260,90L250,90L250,80ZM260,80L270,80L270,90L260,90L260,80ZM140,90L150,90L150,100L140,100L140,90ZM170,90L180,90L180,100L170,100L170,90ZM20,100L30,100L30,110L20,110L20,100ZM30,100L40,100L40,110L30,110L30,100ZM40,100L50,100L50,110L40,110L40,100ZM50,100L60,100L60,110L50,110L50,100ZM60,100L70,100L70,110L60,110L60,100ZM80,100L90,100L90,110L80,110L80,100ZM90,100L100,100L100,110L90,110L90,100ZM100,100L110,100L110,110L100,110L100,100ZM110,100L120,100L120,110L110,110L110,100ZM120,100L130,100L130,110L120,110L120,100ZM130,100L140,100L140,110L130,110L130,100ZM150,100L160,100L160,110L150,110L150,100ZM190,100L200,100L200,110L190,110L190,100ZM210,100L220,100L220,110L210,110L210,100ZM230,100L240,100L240,110L230,110L230,100ZM250,100L260,100L260,110L250,110L250,100ZM30,110L40,110L40,120L30,120L30,110ZM40,110L50,110L50,120L40,120L40,110ZM50,110L60,110L60,120L50,120L50,110ZM60,110L70,110L70,120L60,120L60,110ZM90,110L100,110L100,120L90,120L90,110ZM110,110L120,110L120,120L110,120L110,110ZM130,110L140,110L140,120L130,120L130,110ZM150,110L160,110L160,120L150,120L150,110ZM180,110L190,110L190,120L180,120L180,110ZM210,110L220,110L220,120L210,120L210,110ZM250,110L260,110L260,120L250,120L250,110ZM20,120L30,120L30,130L20,130L20,120ZM30,120L40,120L40,130L30,130L30,120ZM70,120L80,120L80,130L70,130L70,120ZM80,120L90,120L90,130L80,130L80,120ZM100,120L110,120L110,130L100,130L100,120ZM110,120L120,120L120,130L110,130L110,120ZM150,120L160,120L160,130L150,130L150,120ZM160,120L170,120L170,130L160,130L160,120ZM170,120L180,120L180,130L170,130L170,120ZM210,120L220,120L220,130L210,130L210,120ZM230,120L240,120L240,130L230,130L230,120ZM250,120L260,120L260,130L250,130L250,120ZM260,120L270,120L270,130L260,130L260,120ZM30,130L40,130L40,140L30,140L30,130ZM40,130L50,130L50,140L40,140L40,130ZM50,130L60,130L60,140L50,140L50,130ZM70,130L80,130L80,140L70,140L70,130ZM100,130L110,130L110,140L100,140L100,130ZM110,130L120,130L120,140L110,140L110,130ZM120,130L130,130L130,140L120,140L120,130ZM140,130L150,130L150,140L140,140L140,130ZM170,130L180,130L180,140L170,140L170,130ZM190,130L200,130L200,140L190,140L190,130ZM200,130L210,130L210,140L200,140L200,130ZM260,130L270,130L270,140L260,140L260,130ZM20,140L30,140L30,150L20,150L20,140ZM40,140L50,140L50,150L40,150L40,140ZM70,140L80,140L80,150L70,150L70,140ZM80,140L90,140L90,150L80,150L80,140ZM90,140L100,140L100,150L90,150L90,140ZM110,140L120,140L120,150L110,150L110,140ZM140,140L150,140L150,150L140,150L140,140ZM150,140L160,140L160,150L150,150L150,140ZM160,140L170,140L170,150L160,150L160,140ZM170,140L180,140L180,150L170,150L170,140ZM180,140L190,140L190,150L180,150L180,140ZM190,140L200,140L200,150L190,150L190,140ZM200,140L210,140L210,150L200,150L200,140ZM220,140L230,140L230,150L220,150L220,140ZM240,140L250,140L250,150L240,150L240,140ZM250,140L260,140L260,150L250,150L250,140ZM260,140L270,140L270,150L260,150L260,140ZM20,150L30,150L30,160L20,160L20,150ZM30,150L40,150L40,160L30,160L30,150ZM50,150L60,150L60,160L50,160L50,150ZM90,150L100,150L100,160L90,160L90,150ZM100,150L110,150L110,160L100,160L100,150ZM120,150L130,150L130,160L120,160L120,150ZM130,150L140,150L140,160L130,160L130,150ZM150,150L160,150L160,160L150,160L150,150ZM160,150L170,150L170,160L160,160L160,150ZM180,150L190,150L190,160L180,160L180,150ZM210,150L220,150L220,160L210,160L210,150ZM230,150L240,150L240,160L230,160L230,150ZM250,150L260,150L260,160L250,160L250,150ZM20,160L30,160L30,170L20,170L20,160ZM50,160L60,160L60,170L50,170L50,160ZM60,160L70,160L70,170L60,170L60,160ZM70,160L80,160L80,170L70,170L70,160ZM80,160L90,160L90,170L80,170L80,160ZM110,160L120,160L120,170L110,170L110,160ZM120,160L130,160L130,170L120,170L120,160ZM140,160L150,160L150,170L140,170L140,160ZM170,160L180,160L180,170L170,170L170,160ZM180,160L190,160L190,170L180,170L180,160ZM190,160L200,160L200,170L190,170L190,160ZM210,160L220,160L220,170L210,170L210,160ZM220,160L230,160L230,170L220,170L220,160ZM230,160L240,160L240,170L230,170L230,160ZM250,160L260,160L260,170L250,170L250,160ZM260,160L270,160L270,170L260,170L260,160ZM20,170L30,170L30,180L20,180L20,170ZM70,170L80,170L80,180L70,180L70,170ZM90,170L100,170L100,180L90,180L90,170ZM110,170L120,170L120,180L110,180L110,170ZM170,170L180,170L180,180L170,180L170,170ZM180,170L190,170L190,180L180,180L180,170ZM210,170L220,170L220,180L210,180L210,170ZM220,170L230,170L230,180L220,180L220,170ZM260,170L270,170L270,180L260,180L260,170ZM20,180L30,180L30,190L20,190L20,180ZM50,180L60,180L60,190L50,190L50,180ZM60,180L70,180L70,190L60,190L60,180ZM80,180L90,180L90,190L80,190L80,180ZM90,180L100,180L100,190L90,190L90,180ZM100,180L110,180L110,190L100,190L100,180ZM120,180L130,180L130,190L120,190L120,180ZM130,180L140,180L140,190L130,190L130,180ZM140,180L150,180L150,190L140,190L140,180ZM150,180L160,180L160,190L150,190L150,180ZM160,180L170,180L170,190L160,190L160,180ZM170,180L180,180L180,190L170,190L170,180ZM180,180L190,180L190,190L180,190L180,180ZM190,180L200,180L200,190L190,190L190,180ZM200,180L210,180L210,190L200,190L200,180ZM210,180L220,180L220,190L210,190L210,180ZM220,180L230,180L230,190L220,190L220,180ZM240,180L250,180L250,190L240,190L240,180ZM100,190L110,190L110,200L100,200L100,190ZM110,190L120,190L120,200L110,200L110,190ZM120,190L130,190L130,200L120,200L120,190ZM130,190L140,190L140,200L130,200L130,190ZM150,190L160,190L160,200L150,200L150,190ZM160,190L170,190L170,200L160,200L160,190ZM170,190L180,190L180,200L170,200L170,190ZM180,190L190,190L190,200L180,200L180,190ZM220,190L230,190L230,200L220,200L220,190ZM230,190L240,190L240,200L230,200L230,190ZM20,200L30,200L30,210L20,210L20,200ZM30,200L40,200L40,210L30,210L30,200ZM40,200L50,200L50,210L40,210L40,200ZM50,200L60,200L60,210L50,210L50,200ZM60,200L70,200L70,210L60,210L60,200ZM70,200L80,200L80,210L70,210L70,200ZM80,200L90,200L90,210L80,210L80,200ZM100,200L110,200L110,210L100,210L100,200ZM110,200L120,200L120,210L110,210L110,200ZM140,200L150,200L150,210L140,210L140,200ZM180,200L190,200L190,210L180,210L180,200ZM200,200L210,200L210,210L200,210L200,200ZM220,200L230,200L230,210L220,210L220,200ZM240,200L250,200L250,210L240,210L240,200ZM250,200L260,200L260,210L250,210L250,200ZM260,200L270,200L270,210L260,210L260,200ZM20,210L30,210L30,220L20,220L20,210ZM80,210L90,210L90,220L80,220L80,210ZM120,210L130,210L130,220L120,220L120,210ZM140,210L150,210L150,220L140,220L140,210ZM160,210L170,210L170,220L160,220L160,210ZM180,210L190,210L190,220L180,220L180,210ZM220,210L230,210L230,220L220,220L220,210ZM230,210L240,210L240,220L230,220L230,210ZM260,210L270,210L270,220L260,220L260,210ZM20,220L30,220L30,230L20,230L20,220ZM40,220L50,220L50,230L40,230L40,220ZM50,220L60,220L60,230L50,230L50,220ZM60,220L70,220L70,230L60,230L60,220ZM80,220L90,220L90,230L80,230L80,220ZM100,220L110,220L110,230L100,230L100,220ZM120,220L130,220L130,230L120,230L120,220ZM150,220L160,220L160,230L150,230L150,220ZM160,220L170,220L170,230L160,230L160,220ZM170,220L180,220L180,230L170,230L170,220ZM180,220L190,220L190,230L180,230L180,220ZM190,220L200,220L200,230L190,230L190,220ZM200,220L210,220L210,230L200,230L200,220ZM210,220L220,220L220,230L210,230L210,220ZM220,220L230,220L230,230L220,230L220,220ZM240,220L250,220L250,230L240,230L240,220ZM250,220L260,220L260,230L250,230L250,220ZM20,230L30,230L30,240L20,240L20,230ZM40,230L50,230L50,240L40,240L40,230ZM50,230L60,230L60,240L50,240L50,230ZM60,230L70,230L70,240L60,240L60,230ZM80,230L90,230L90,240L80,240L80,230ZM100,230L110,230L110,240L100,240L100,230ZM110,230L120,230L120,240L110,240L110,230ZM130,230L140,230L140,240L130,240L130,230ZM150,230L160,230L160,240L150,240L150,230ZM160,230L170,230L170,240L160,240L160,230ZM170,230L180,230L180,240L170,240L170,230ZM180,230L190,230L190,240L180,240L180,230ZM190,230L200,230L200,240L190,240L190,230ZM200,230L210,230L210,240L200,240L200,230ZM220,230L230,230L230,240L220,240L220,230ZM230,230L240,230L240,240L230,240L230,230ZM240,230L250,230L250,240L240,240L240,230ZM250,230L260,230L260,240L250,240L250,230ZM260,230L270,230L270,240L260,240L260,230ZM20,240L30,240L30,250L20,250L20,240ZM40,240L50,240L50,250L40,250L40,240ZM50,240L60,240L60,250L50,250L50,240ZM60,240L70,240L70,250L60,250L60,240ZM80,240L90,240L90,250L80,250L80,240ZM100,240L110,240L110,250L100,250L100,240ZM110,240L120,240L120,250L110,250L110,240ZM150,240L160,240L160,250L150,250L150,240ZM180,240L190,240L190,250L180,250L180,240ZM230,240L240,240L240,250L230,250L230,240ZM240,240L250,240L250,250L240,250L240,240ZM260,240L270,240L270,250L260,250L260,240ZM20,250L30,250L30,260L20,260L20,250ZM80,250L90,250L90,260L80,260L80,250ZM100,250L110,250L110,260L100,260L100,250ZM110,250L120,250L120,260L110,260L110,250ZM130,250L140,250L140,260L130,260L130,250ZM170,250L180,250L180,260L170,260L170,250ZM180,250L190,250L190,260L180,260L180,250ZM210,250L220,250L220,260L210,260L210,250ZM220,250L230,250L230,260L220,260L220,250ZM230,250L240,250L240,260L230,260L230,250ZM260,250L270,250L270,260L260,260L260,250ZM20,260L30,260L30,270L20,270L20,260ZM30,260L40,260L40,270L30,270L30,260ZM40,260L50,260L50,270L40,270L40,260ZM50,260L60,260L60,270L50,270L50,260ZM60,260L70,260L70,270L60,270L60,260ZM70,260L80,260L80,270L70,270L70,260ZM80,260L90,260L90,270L80,270L80,260ZM100,260L110,260L110,270L100,270L100,260ZM110,260L120,260L120,270L110,270L110,260ZM130,260L140,260L140,270L130,270L130,260ZM140,260L150,260L150,270L140,270L140,260ZM150,260L160,260L160,270L150,270L150,260ZM170,260L180,260L180,270L170,270L170,260ZM190,260L200,260L200,270L190,270L190,260ZM200,260L210,260L210,270L200,270L200,260ZM210,260L220,260L220,270L210,270L210,260ZM220,260L230,260L230,270L220,270L220,260ZM230,260L240,260L240,270L230,270L230,260ZM240,260L250,260L250,270L240,270L240,260ZM250,260L260,260L260,270L250,270L250,260ZM260,260L270,260L270,270L260,270L260,260Z" style="fill:rgb(255,255,254);fill-rule:nonzero;"/>
    </g>
</svg>
